HIERARCHY
ROOT Hips
{
  OFFSET 52.6575 91.7217 4.60015
  CHANNELS 6 Xposition Yposition Zposition Zrotation Xrotation Yrotation
  JOINT spine
  {
    OFFSET 0 6.84637 0.3937
    CHANNELS 3 Zrotation Xrotation Yrotation
    JOINT spine1
    {
      OFFSET 0 9.49621 0
      CHANNELS 3 Zrotation Xrotation Yrotation
      JOINT spine2
      {
        OFFSET 0 9.09909 0
        CHANNELS 3 Zrotation Xrotation Yrotation
        JOINT Neck
        {
          OFFSET 0 23.3612 1.11378
          CHANNELS 3 Zrotation Xrotation Yrotation
          JOINT Head
          {
            OFFSET 0 7.05802 0
            CHANNELS 3 Zrotation Xrotation Yrotation
            End Site
            {
              OFFSET 0 17.0844 -5.63419
            }
          }
        }
        JOINT RightShoulder
        {
          OFFSET -3.83136 9.82631 -0.533491
          CHANNELS 3 Zrotation Xrotation Yrotation
          JOINT RightArm
          {
            OFFSET 0 12.8881 0
            CHANNELS 3 Zrotation Xrotation Yrotation
            JOINT RightArmRoll
            {
              OFFSET 0 6.50617 0
              CHANNELS 3 Zrotation Xrotation Yrotation
              JOINT RightForeArm
              {
                OFFSET 0 18.9501 0
                CHANNELS 3 Zrotation Xrotation Yrotation
                JOINT RightForeArmRoll
                {
                  OFFSET 0 7.30092 0
                  CHANNELS 3 Zrotation Xrotation Yrotation
                  JOINT RightHand
                  {
                    OFFSET 0 14.6514 0
                    CHANNELS 3 Zrotation Xrotation Yrotation
                    End Site
                    {
                      OFFSET 0 0 0
                    }
                  }
                }
              }
            }
          }
        }
        JOINT LeftShoulder
        {
          OFFSET 3.83136 9.82631 -0.533491
          CHANNELS 3 Zrotation Xrotation Yrotation
          JOINT LeftArm
          {
            OFFSET 0 12.8881 0
            CHANNELS 3 Zrotation Xrotation Yrotation
            JOINT LeftArmRoll
            {
              OFFSET 0 6.50617 0
              CHANNELS 3 Zrotation Xrotation Yrotation
              JOINT LeftForeArm
              {
                OFFSET 0 18.9501 0
                CHANNELS 3 Zrotation Xrotation Yrotation
                JOINT LeftForeArmRoll
                {
                  OFFSET 0 7.30092 0
                  CHANNELS 3 Zrotation Xrotation Yrotation
                  JOINT LeftHand
                  {
                    OFFSET 0 14.6514 0
                    CHANNELS 3 Zrotation Xrotation Yrotation
                    End Site
                    {
                      OFFSET 0 0 0
                    }
                  }
                }
              }
            }
          }
        }
      }
    }
  }
  JOINT RightUpLeg
  {
    OFFSET -6.06837 -1.11278 -0.933477
    CHANNELS 3 Zrotation Xrotation Yrotation
    JOINT RightUpLegRoll
    {
      OFFSET 0 17.1796 0
      CHANNELS 3 Zrotation Xrotation Yrotation
      JOINT RightLeg
      {
        OFFSET 0 -21.2743 0
        CHANNELS 3 Zrotation Xrotation Yrotation
        JOINT RightLegRoll
        {
          OFFSET 0 21.3439 0
          CHANNELS 3 Zrotation Xrotation Yrotation
          JOINT RightFoot
          {
            OFFSET 0 17.7652 0
            CHANNELS 3 Zrotation Xrotation Yrotation
            JOINT RightToeBase
            {
              OFFSET 0 14.8508 0
              CHANNELS 3 Zrotation Xrotation Yrotation
              End Site
              {
                OFFSET 0.00629469 7.19214 -0.829004
              }
            }
          }
        }
      }
    }
  }
  JOINT LeftUpLeg
  {
    OFFSET 6.06837 -1.11278 -0.933477
    CHANNELS 3 Zrotation Xrotation Yrotation
    JOINT LeftUpLegRoll
    {
      OFFSET 0 17.1797 0
      CHANNELS 3 Zrotation Xrotation Yrotation
      JOINT LeftLeg
      {
        OFFSET 0 21.2742 0
        CHANNELS 3 Zrotation Xrotation Yrotation
        JOINT LeftLegRoll
        {
          OFFSET 0 21.5412 0
          CHANNELS 3 Zrotation Xrotation Yrotation
          JOINT LeftFoot
          {
            OFFSET 0 17.5679 0
            CHANNELS 3 Zrotation Xrotation Yrotation
            JOINT LeftToeBase
            {
              OFFSET 0 14.8508 0
              CHANNELS 3 Zrotation Xrotation Yrotation
              End Site
              {
                OFFSET -0.0282102 7.19214 -0.829005
              }
            }
          }
        }
      }
    }
  }
}
MOTION
Frames: 4
Frame Time: 0.00208333
53.4664 91.5915 5.95 0.138071 -1.3761 -5.0341 0.099786 -1.85468 -0.0447949 0.191057 0.293357 -0.0911061 0.19223 1.93843 -0.0943319 -0.52872 21.16 -0.347977 -1.1584 -6.19432 -0.716799 73.91 4.44638 0.278205 100.561 0.448478 19.1191 -4.28497e-006 3.01829e-007 -1.96228e-006 8.06922 14.7103 -2.36203 -9.62541e-006 2.55556e-006 -3 8.02917 -4.95145 0.697692 -71.4521 4.19902 -0.545091 -101.85 9.31158 -27.4461 -5.02675e-007 -7.13057e-008 2.95005e-006 -7.07124 0.48896 0.22899 1.62215e-005 -5.72526e-006 3.00846 -8.02924 -4.95143 -0.69767 175.241 2.88985 1.64118 180 7.01557e-015 178.97 177.193 4.95438 179.992 3.03062e-006 -1.82859e-007 0.0386654 -18.4763 67.7296 19.3078 8.1365 25.2327 -3.48774 -175.926 -3.07277 0.400795 4.54188e-006 -4.6773e-006 -1.14853 -1.4003 -4.45532 0.0638263 2.21324e-006 -6.73998e-007 -0.0431335 18.6888 67.97 -19.4873 -8.13649 25.2327 3.48774 
53.4648 91.5912 5.95818 0.12396 -1.37318 -5.05268 0.100561 -1.85413 -0.0468709 0.193119 0.294446 -0.0962514 0.194355 1.93951 -0.0995138 -0.535798 21.1121 -0.339006 -1.16608 -6.13487 -0.710622 73.8644 4.38855 0.258975 100.604 0.454745 19.2243 -4.28497e-006 3.01829e-007 -1.96228e-006 7.98298 14.6746 -2.35097 -9.62541e-006 2.55556e-006 -3 8.02917 -4.95145 0.697692 -71.3978 4.15487 -0.532414 -101.926 9.2401 -27.4747 -5.02675e-007 -7.13057e-008 2.95005e-006 -7.05026 0.500554 0.230187 1.62215e-005 -5.72526e-006 3.00846 -8.02924 -4.95143 -0.69767 175.256 2.89157 1.6322 180 7.01557e-015 178.97 177.193 4.951 179.992 3.03062e-006 -1.82859e-007 0.0386654 -18.4777 67.7313 19.3093 8.1365 25.2327 -3.48774 -175.911 -3.07039 0.392645 4.54188e-006 -4.6773e-006 -1.14826 -1.40056 -4.46544 0.0639276 2.21324e-006 -6.73998e-007 -0.0433848 18.6959 67.9784 -19.4952 -8.13649 25.2327 3.48774 
53.457 91.5943 5.9572 0.109948 -1.37049 -5.0715 0.101435 -1.85355 -0.048936 0.195412 0.295611 -0.101428 0.196711 1.94068 -0.10473 -0.5471 21.0651 -0.329061 -1.17095 -6.07687 -0.704647 73.8164 4.33076 0.24012 100.651 0.459813 19.329 -4.28497e-006 3.01829e-007 -1.96228e-006 7.89671 14.6395 -2.33996 -9.62541e-006 2.55556e-006 -3 8.02917 -4.95145 0.697692 -71.3462 4.11237 -0.520235 -102 9.16645 -27.5048 -5.02675e-007 -7.13057e-008 2.95005e-006 -7.02922 0.512841 0.231466 1.62215e-005 -5.72526e-006 3.00846 -8.02924 -4.95143 -0.69767 175.271 2.89315 1.62319 180 7.01557e-015 178.97 177.192 4.94772 179.992 3.03062e-006 -1.82859e-007 0.0386654 -18.479 67.7329 19.3108 8.1365 25.2327 -3.48774 -175.896 -3.06821 0.384399 4.54188e-006 -4.6773e-006 -1.14799 -1.40094 -4.47578 0.0640326 2.21324e-006 -6.73998e-007 -0.0436294 18.703 67.987 -19.5032 -8.13649 25.2327 3.48774 
53.4554 91.5941 5.95928 0.0960069 -1.36795 -5.09048 0.102377 -1.85294 -0.0509935 0.197869 0.296832 -0.106625 0.199231 1.9419 -0.109971 -0.561352 21.0185 -0.318436 -1.17384 -6.01989 -0.698812 73.7667 4.27301 0.221529 100.701 0.46404 19.4335 -4.28497e-006 3.01829e-007 -1.96228e-006 7.81044 14.6049 -2.32898 -9.62541e-006 2.55556e-006 -3 8.02917 -4.95145 0.697692 -71.2963 4.07105 -0.508405 -102.072 9.09129 -27.536 -5.02675e-007 -7.13057e-008 2.95005e-006 -7.00812 0.525612 0.232803 1.62215e-005 -5.72526e-006 3.00846 -8.02924 -4.95143 -0.69767 175.287 2.89462 1.61415 180 7.01557e-015 178.97 177.192 4.94447 179.991 3.03062e-006 -1.82859e-007 0.0386654 -18.4804 67.7345 19.3122 8.1365 25.2327 -3.48774 -175.88 -3.06615 0.376084 4.54188e-006 -4.6773e-006 -1.14771 -1.40141 -4.48627 0.0641402 2.21324e-006 -6.73998e-007 -0.0438694 18.7102 67.9956 -19.5112 -8.13649 25.2327 3.48774 
